<svg id="ic-logo" xmlns="http://www.w3.org/2000/svg" xmlns:xlink="http://www.w3.org/1999/xlink" width="123" height="40" viewBox="0 0 123 40">
  <defs>
    <clipPath id="clip-path">
      <path id="Path_54623" data-name="Path 54623" d="M20.123,28.742a15.144,15.144,0,0,0,5.558-7.11,26.772,26.772,0,0,0,2.284-9.762A10.557,10.557,0,0,0,25,4.012,17.405,17.405,0,0,0,19.39.956,12.688,12.688,0,0,0,14.633.006c-3.209.1-6.059,2.1-8.643,3.809C3.519,5.451,1.274,7.405.454,10.362a16.619,16.619,0,0,0,.331,8.8c1.572,5.5,5.752,10.205,11.588,11.091A11.273,11.273,0,0,0,20.123,28.742Z" transform="translate(-0.001 -0.002)" fill="none"/>
    </clipPath>
  </defs>
  <path id="Path_54614" data-name="Path 54614" d="M164.412,49.254a18.564,18.564,0,0,0-8.234-7.392,32.731,32.731,0,0,0-11.746-3.6,12.923,12.923,0,0,0-9.85,2.98,21.356,21.356,0,0,0-4.2,6.618,15.642,15.642,0,0,0-1.552,5.748c-.144,3.937,2.065,7.592,3.942,10.9,1.8,3.159,4,6.068,7.547,7.318a20.328,20.328,0,0,0,10.78.322c6.86-1.47,12.95-6.2,14.514-13.273a13.859,13.859,0,0,0-1.2-9.615Z" transform="translate(-110.31 -32.713)" fill="#dce5f2"/>
  <g id="Group_10492" data-name="Group 10492" clip-path="url(#clip-path)">
    <g id="Group_10491" data-name="Group 10491" transform="translate(-5.215 -4.72)">
      <path id="Path_54615" data-name="Path 54615" d="M21.19,91.892,42.41,79.362c1.025-.606,2.062-1.123,3.076-1.844,4.666-3.323,7.9-3.876,11.308-4.818.789-.219,1.042.351,1.72.633-4.014,2.352-7.568,4.469-11.1,6.5Q37.1,85.752,26.809,91.595c-4.362,2.483-4.357,2.468-5.619.3Z" transform="translate(-12.929 -57.481)" fill="#dce5f2"/>
      <path id="Path_54616" data-name="Path 54616" d="M38.56,109.836c3.449-2.028,6.39-3.787,9.307-5.464q11.462-6.589,22.9-13.093c1.16-.657,3.09-2.346,3.145-1.135.03.656-2.778,3.76-4.179,4.636-1.891,1.184-3.774,2.316-5.657,3.448-6.048,3.639-12.084,7.22-18.144,10.927-2.508,1.533-3.7,1.394-4.895,1.179-.746-.134-1.467-.295-2.475-.5Z" transform="translate(-27.803 -72.094)" fill="#dce5f2"/>
      <path id="Path_54617" data-name="Path 54617" d="M28.264,41.132c-2.124,1.359-4.221,2.1-6.263,3.308-2.363,1.4-4.8,3.09-7.2,4.637-3.076,1.982-6.154,3.989-9.219,5.907C3.8,56.1,3.046,56.724,2.427,55.326c-.3-.673-.667-1.335.167-2,1.544-.887,3.867-2.6,5.254-3.491,4.026-2.58,8.06-5.238,12.089-7.855,1.459-.946,2.913-1.857,4.37-2.8,3.017-1.946,4.005-1.568,4.064-.068a3,3,0,0,0,.237.967.864.864,0,0,1-.345,1.051Z" transform="translate(3.432 -27.688)" fill="#dce5f2"/>
      <path id="Path_54618" data-name="Path 54618" d="M39.219,75.76c-2.9,1.677-5.672,3.274-8.462,4.928-4.415,2.618-8.831,5.22-13.271,7.976-5.259,3.265-5.27,3.334-5.356.1,1.7-.915,3.293-1.637,4.922-2.683,2.573-1.65,5.182-3.617,7.755-5.26,2.427-1.551,4.826-2.855,7.236-4.263.168-.1,7.355-3.671,8.16-2.06.167.334-.389.916-.983,1.259Z" transform="translate(-5.172 -58.707)" fill="#dce5f2"/>
      <path id="Path_54619" data-name="Path 54619" d="M13.066,11.813C5.183,16.869-3.265,22.2-11.708,27.618c-3.1.3-2.817-1.164-1.911-2.905.078-.148,2.677-1.782,6.15-3.9,5.585-3.406,13.425-8.062,16.641-9.8,3.5-1.883,3.724-1.635,3.9.8Z" transform="translate(17.4 -3.649)" fill="#dce5f2"/>
      <path id="Path_54620" data-name="Path 54620" d="M4.934.457c-.782.667-12.4,7.325-17.875,10.205-2.035,1.07-4.005,2.987-4.468,2.846a1.576,1.576,0,0,1-.48-2.593c2.358-2.073,8.3-5.3,10.79-6.862C-4.7,2.544,2.763-1.554,4.22-1.427c1.015.088,1.786.969.714,1.884Z" transform="translate(20.98 5.944)" fill="#dce5f2"/>
      <path id="Path_54621" data-name="Path 54621" d="M-35.771-19.752c.782-.667,12.4-7.325,17.875-10.205,2.035-1.07,4.005-2.987,4.468-2.846a1.576,1.576,0,0,1,.48,2.593c-2.358,2.073-8.3,5.3-10.79,6.861-2.4,1.509-9.862,5.607-11.319,5.482C-36.071-17.956-36.843-18.838-35.771-19.752Z" transform="translate(36.288 32.811)" fill="#dce5f2"/>
      <path id="Path_54622" data-name="Path 54622" d="M116.68,136.42c-5.687,6.526-17.949,13.876-22.76,13.638Z" transform="translate(-75.207 -112.079)" fill="#dce5f2"/>
    </g>
  </g>
  <g id="Group_10494" data-name="Group 10494" transform="translate(9.988 4.681)">
    <path id="Path_54624" data-name="Path 54624" d="M91.977,97.645a.613.613,0,0,1,0,.565L84.4,113.042l-.157.3,0,.007a3.487,3.487,0,0,1-6.043-.006c-.023-.039-.045-.079-.065-.118L69.629,97.12A1.1,1.1,0,0,1,70.6,95.5H89.794a1.75,1.75,0,0,1,1.549.936l.635,1.207h0Z" transform="translate(-69.5 -86.446)" fill="#0048d2"/>
    <path id="Path_54625" data-name="Path 54625" d="M113.979,45.686c.947,1.9.18,3.438-1.716,3.438a6.452,6.452,0,0,1-5.146-3.438c-.947-1.9.372-2.846,2.266-2.846a5,5,0,0,1,4.595,2.846Z" transform="translate(-101.441 -41.36)" fill="#0048d2"/>
    <path id="Path_54626" data-name="Path 54626" d="M123.551,120.985a.505.505,0,0,1,0,.465l-2.936,12.2-.129.25,0,.006a2.834,2.834,0,0,1-1.049,1.049,2.872,2.872,0,0,1-3.925-1.053c-.019-.032-.037-.065-.055-.1L108.666,120.7a.907.907,0,0,1,.8-1.332l12.283-.148a1.442,1.442,0,0,1,1.275.77l.523.994h0Z" transform="translate(-102.946 -106.754)" fill="#fff1ba"/>
    <path id="Path_54627" data-name="Path 54627" d="M154.924,142.627a.287.287,0,0,1,0,.265l-1.206,6.973-.073.144v0a1.642,1.642,0,0,1-2.843,0l-.03-.055-3.856-7.432a.518.518,0,0,1,.457-.761l6.523-.142a.825.825,0,0,1,.729.44l.3.567h0Z" transform="translate(-135.739 -125.932)" fill="#ff6e70"/>
    <path id="Path_54628" data-name="Path 54628" d="M186.272,36.271,175.017,58.205a5.516,5.516,0,0,1-4.932,3H150.65a3.174,3.174,0,0,0,2.485-2.063s.006-.009.006-.012l.095-.188.949-1.854L165.441,35.1a4.688,4.688,0,0,1,4.192-2.55l2.938.014a.547.547,0,0,1,.486.791l-.836,1.791c-1.177,2.355-.319,4.265,1.917,4.269,2.478,0,4.6-1.128,6.181-4.259.28-.555,1.063-2.247,1.063-2.247a.547.547,0,0,1,.49-.3l2.187.01c3.508,0,2.557,2.951,2.212,3.652h0Z" transform="translate(-138.987 -32.55)" fill="#0048d2"/>
    <g id="Group_10493" data-name="Group 10493" transform="translate(23.856 10.48)">
      <path id="Path_54629" data-name="Path 54629" d="M291.617,106.238h.815l-.864.535-.073.849-.453-.524-.862.524.592-.849-.454-.535h.812l.569-.828-.082.828Z" transform="translate(-282.32 -105.41)" fill="#fff1ba"/>
      <path id="Path_54630" data-name="Path 54630" d="M262.22,182.385h.849l-.884.516-.049.816-.489-.5-.878.5.588-.816-.489-.516h.846l.566-.8-.062.8Z" transform="translate(-257.137 -170.633)" fill="#fff1ba"/>
      <path id="Path_54631" data-name="Path 54631" d="M282.916,177.347h.846l-.875.515-.043.817-.49-.5-.874.5.581-.817-.493-.515h.845l.558-.8-.055.8Z" transform="translate(-274.87 -166.318)" fill="#fff1ba"/>
      <path id="Path_54632" data-name="Path 54632" d="M308.076,111.5h.818l-.854.515-.052.817-.469-.5-.849.5.571-.817-.469-.515h.816l.549-.8-.062.8Z" transform="translate(-296.44 -109.939)" fill="#fff1ba"/>
      <path id="Path_54633" data-name="Path 54633" d="M316.283,125.445h.824l-.855.515-.045.817-.476-.5-.851.5.568-.817-.477-.515h.821l.545-.8-.053.8Z" transform="translate(-303.47 -121.883)" fill="#fff1ba"/>
      <path id="Path_54634" data-name="Path 54634" d="M301.98,163.6h.839l-.868.516-.039.817-.49-.5-.862.5.572-.817-.49-.516h.836l.55-.8-.049.8Z" transform="translate(-291.208 -154.545)" fill="#fff1ba"/>
      <path id="Path_54635" data-name="Path 54635" d="M314.358,144.227h.832l-.859.515-.04.817-.483-.5-.858.5.569-.817-.486-.515h.829l.546-.8-.05.8Z" transform="translate(-301.818 -137.961)" fill="#fff1ba"/>
      <path id="Path_54636" data-name="Path 54636" d="M271.281,111.537h.818l-.864.516-.068.816-.458-.5-.859.5.586-.816-.457-.516h.813l.565-.8-.076.8Z" transform="translate(-264.912 -109.973)" fill="#fff1ba"/>
      <path id="Path_54637" data-name="Path 54637" d="M252.526,125.487h.825l-.871.515-.073.817-.458-.5-.868.5.594-.817-.46-.515h.822l.572-.8-.082.8Z" transform="translate(-248.839 -121.917)" fill="#fff1ba"/>
      <path id="Path_54638" data-name="Path 54638" d="M239.92,144.275h.832l-.88.516-.072.816-.464-.5-.877.5.6-.816-.464-.516h.829l.575-.8-.079.8Z" transform="translate(-238.033 -138.004)" fill="#fff1ba"/>
      <path id="Path_54639" data-name="Path 54639" d="M236.956,163.645h.841l-.887.516-.066.817-.471-.5-.882.5.6-.817-.473-.516h.838l.576-.8-.075.8Z" transform="translate(-235.49 -154.588)" fill="#fff1ba"/>
      <path id="Path_54640" data-name="Path 54640" d="M245.053,177.4h.845l-.885.515-.06.817-.48-.5-.882.5.6-.817-.481-.515h.844l.572-.8-.068.8Z" transform="translate(-242.426 -166.36)" fill="#fff1ba"/>
    </g>
  </g>
  <g id="Group_10495" data-name="Group 10495" transform="translate(66.41 7.203)">
    <path id="Path_54641" data-name="Path 54641" d="M538.618,57.093a.176.176,0,0,1-.129-.036.165.165,0,0,1-.029-.1V52.38a.123.123,0,0,1,.137-.14h1.466a2.192,2.192,0,0,1,.989.2,1.545,1.545,0,0,1,.614.519,2,2,0,0,1,.318.768,4.4,4.4,0,0,1,.093.929,5.023,5.023,0,0,1-.086.945,2.131,2.131,0,0,1-.31.777,1.577,1.577,0,0,1-.621.526,2.277,2.277,0,0,1-1,.19h-1.444Zm2.607-2.386a3.253,3.253,0,0,0-.093-.849,1.407,1.407,0,0,0-.246-.542.849.849,0,0,0-.382-.278,1.367,1.367,0,0,0-.477-.081h-.752v3.412h.7a1.635,1.635,0,0,0,.47-.066.885.885,0,0,0,.4-.249,1.3,1.3,0,0,0,.274-.5,2.76,2.76,0,0,0,.108-.841Z" transform="translate(-527.484 -51.929)" fill="#222433"/>
    <path id="Path_54642" data-name="Path 54642" d="M570.761,51.929a.905.905,0,0,1-.014.168.3.3,0,0,1-.065.132.3.3,0,0,1-.129.095.633.633,0,0,1-.217.029.61.61,0,0,1-.231-.036.307.307,0,0,1-.122-.095.333.333,0,0,1-.057-.132.871.871,0,0,1-.014-.161.514.514,0,0,1,.079-.293.4.4,0,0,1,.346-.125.408.408,0,0,1,.346.117.5.5,0,0,1,.079.3Zm-.043,4.4a.185.185,0,0,1-.029.1c-.014.024-.047.036-.1.036h-.513c-.1,0-.145-.046-.145-.14v-3.31c0-.092.047-.14.145-.14h.513c.053,0,.086.014.1.045a.152.152,0,0,1,.029.095v3.31Z" transform="translate(-554.414 -51.304)" fill="#222433"/>
    <path id="Path_54643" data-name="Path 54643" d="M582.932,60.53a5.274,5.274,0,0,1,.721.052,3.668,3.668,0,0,1,.642.14.227.227,0,0,1,.16.14.491.491,0,0,1,.036.19v3.1a3.719,3.719,0,0,1-.043.585.976.976,0,0,1-.2.469,1.021,1.021,0,0,1-.463.308,2.422,2.422,0,0,1-.816.109,5.6,5.6,0,0,1-.614-.036,1.983,1.983,0,0,1-.549-.132c-.078-.029-.122-.063-.137-.1a.167.167,0,0,1-.007-.109l.058-.27c.01-.059.029-.092.057-.1a.377.377,0,0,1,.152,0q.246.037.513.052c.183.014.345.022.484.022a1.574,1.574,0,0,0,.375-.036.53.53,0,0,0,.239-.117.354.354,0,0,0,.115-.2,1.049,1.049,0,0,0,.036-.293v-.242a2.62,2.62,0,0,1-.5.14,2.358,2.358,0,0,1-.389.036,1.706,1.706,0,0,1-.721-.132,1.118,1.118,0,0,1-.448-.367,1.572,1.572,0,0,1-.224-.571,4.393,4.393,0,0,1-.057-.746,3.861,3.861,0,0,1,.072-.777,1.473,1.473,0,0,1,.253-.593,1.154,1.154,0,0,1,.484-.381,1.984,1.984,0,0,1,.773-.132Zm-.759,1.815a3.638,3.638,0,0,0,.036.564,1.246,1.246,0,0,0,.122.367.5.5,0,0,0,.217.19.829.829,0,0,0,.325.059,2.813,2.813,0,0,0,.368-.029,3.428,3.428,0,0,0,.448-.095V61.314a3.583,3.583,0,0,0-.361-.045,3.166,3.166,0,0,0-.361-.022,1.235,1.235,0,0,0-.31.036.513.513,0,0,0-.253.154.793.793,0,0,0-.174.329A2.334,2.334,0,0,0,582.173,62.345Z" transform="translate(-564.21 -59.027)" fill="#222433"/>
    <path id="Path_54644" data-name="Path 54644" d="M609.761,51.929a.91.91,0,0,1-.014.168.322.322,0,0,1-.194.227.632.632,0,0,1-.217.029.605.605,0,0,1-.231-.036.307.307,0,0,1-.122-.095.331.331,0,0,1-.057-.132.871.871,0,0,1-.014-.161.514.514,0,0,1,.079-.293.4.4,0,0,1,.346-.125.408.408,0,0,1,.346.117.5.5,0,0,1,.079.3Zm-.043,4.4a.185.185,0,0,1-.029.1c-.014.024-.047.036-.1.036h-.513c-.1,0-.145-.046-.145-.14v-3.31c0-.092.047-.14.145-.14h.513c.053,0,.086.014.1.045a.153.153,0,0,1,.029.095v3.31Z" transform="translate(-587.81 -51.304)" fill="#222433"/>
    <path id="Path_54645" data-name="Path 54645" d="M621.679,58.074a.158.158,0,0,1-.093.183,1.172,1.172,0,0,1-.224.073,2,2,0,0,1-.26.045,2.269,2.269,0,0,1-.253.029c-.078,0-.145.007-.2.007a1.157,1.157,0,0,1-.5-.088.629.629,0,0,1-.26-.256,1,1,0,0,1-.108-.374,4.423,4.423,0,0,1-.022-.446V55.409H619.4a.154.154,0,0,1-.108-.029.177.177,0,0,1-.029-.109v-.358a.177.177,0,0,1,.029-.109.129.129,0,0,1,.108-.036h.368v-.754a.133.133,0,0,1,.036-.109.258.258,0,0,1,.1-.052l.484-.132c.1-.024.145,0,.145.088v.959h.773c.057,0,.093.012.108.036a.166.166,0,0,1,.029.1v.367a.177.177,0,0,1-.029.109c-.014.02-.05.029-.108.029h-.773v1.822a.929.929,0,0,0,.022.227.255.255,0,0,0,.072.125.341.341,0,0,0,.152.045c.063,0,.142.007.239.007.053,0,.128,0,.224-.007s.188-.012.26-.022a.119.119,0,0,1,.086.014.155.155,0,0,1,.043.088l.05.367Z" transform="translate(-596.672 -53.189)" fill="#222433"/>
    <path id="Path_54646" data-name="Path 54646" d="M640.584,62.575H639.7a.663.663,0,0,0-.434.132.59.59,0,0,0-.16.483.478.478,0,0,0,.093.337.543.543,0,0,0,.354.088,1.275,1.275,0,0,0,.253-.029,1.976,1.976,0,0,0,.274-.081c.092-.035.181-.07.267-.109s.164-.085.231-.125v-.7Zm.043,1.215a2.4,2.4,0,0,1-.621.344,1.94,1.94,0,0,1-.707.132,1.39,1.39,0,0,1-.484-.073.822.822,0,0,1-.3-.213.926.926,0,0,1-.159-.329,1.926,1.926,0,0,1-.043-.424,1.135,1.135,0,0,1,.332-.929A1.532,1.532,0,0,1,639.666,62h.924v-.19a.86.86,0,0,0-.036-.27.35.35,0,0,0-.115-.19.5.5,0,0,0-.231-.1,1.859,1.859,0,0,0-.368-.029c-.057,0-.129,0-.217.007l-.26.014q-.129.006-.267.022c-.086.01-.167.017-.239.022a.6.6,0,0,1-.152.007c-.024-.01-.04-.042-.05-.095l-.065-.27a.152.152,0,0,1,.014-.117.3.3,0,0,1,.152-.1,1.7,1.7,0,0,1,.274-.073c.106-.02.214-.035.325-.045s.218-.024.325-.029.21-.014.3-.014a2.338,2.338,0,0,1,.743.095.924.924,0,0,1,.427.27.864.864,0,0,1,.188.417,3.275,3.275,0,0,1,.043.557V63.3c0,.073,0,.132.007.175a.377.377,0,0,0,.036.095.176.176,0,0,0,.079.045.662.662,0,0,0,.137.022.217.217,0,0,1,.108.029.1.1,0,0,1,.029.081v.308c0,.083-.058.134-.174.154a1.738,1.738,0,0,1-.174.022.967.967,0,0,1-.167.014.79.79,0,0,1-.411-.095.532.532,0,0,1-.21-.351l-.014-.007Z" transform="translate(-612.984 -59.044)" fill="#222433"/>
    <path id="Path_54647" data-name="Path 54647" d="M667.429,54.353c0,.112.024.183.072.213a.7.7,0,0,0,.267.036.242.242,0,0,1,.1.022.111.111,0,0,1,.043.073l.029.374a.141.141,0,0,1-.093.14.683.683,0,0,1-.239.066,1.534,1.534,0,0,1-.231.022.754.754,0,0,1-.578-.183.859.859,0,0,1-.16-.564V50.24a.123.123,0,0,1,.137-.14h.513a.121.121,0,0,1,.137.14v4.115Z" transform="translate(-637.243 -50.097)" fill="#222433"/>
    <path id="Path_54648" data-name="Path 54648" d="M694.79,52.327c0-.1.046-.147.137-.147h.549c.092,0,.137.049.137.147V56.9a.123.123,0,0,1-.137.14h-.549a.121.121,0,0,1-.137-.14Z" transform="translate(-661.347 -51.878)" fill="#222433"/>
    <path id="Path_54649" data-name="Path 54649" d="M709.9,55.1a.163.163,0,0,1-.029.1c-.014.024-.047.036-.1.036h-.52a.116.116,0,0,1-.129-.132v-.234H709.1s0-.007-.007-.007c-.063.045-.137.092-.224.147s-.181.095-.282.14a1.674,1.674,0,0,1-.318.1,1.321,1.321,0,0,1-.9-.081.993.993,0,0,1-.361-.367,1.819,1.819,0,0,1-.188-.564,5.206,5.206,0,0,1-.05-.754,4.935,4.935,0,0,1,.057-.8,1.659,1.659,0,0,1,.224-.607,1,1,0,0,1,.433-.374,1.711,1.711,0,0,1,.721-.132,2.553,2.553,0,0,1,.9.168h.007s0-.007.007-.007V50.225a.219.219,0,0,1,.021-.109.141.141,0,0,1,.115-.036h.513c.057,0,.093.014.108.045a.2.2,0,0,1,.022.1V55.1Zm-.788-2.694a2.679,2.679,0,0,0-.454-.095,2.447,2.447,0,0,0-.375-.029.851.851,0,0,0-.332.059.449.449,0,0,0-.217.2,1.062,1.062,0,0,0-.115.374,3.691,3.691,0,0,0-.036.571,4.72,4.72,0,0,0,.029.571.958.958,0,0,0,.108.329.4.4,0,0,0,.174.154.726.726,0,0,0,.246.036.965.965,0,0,0,.246-.036c.092-.024.183-.053.275-.088s.175-.069.253-.1.149-.073.2-.1V52.412Z" transform="translate(-671.605 -50.08)" fill="#222433"/>
    <path id="Path_54650" data-name="Path 54650" d="M734.276,62.616a1.974,1.974,0,0,0,.057.462.709.709,0,0,0,.167.293.621.621,0,0,0,.267.147,1.469,1.469,0,0,0,.382.045,4.556,4.556,0,0,0,.463-.029l.477-.052a.225.225,0,0,1,.136.007c.029.01.047.049.057.117l.043.242a.233.233,0,0,1-.007.132c-.01.035-.047.066-.115.095a2.037,2.037,0,0,1-.253.081c-.1.02-.2.036-.3.052s-.211.027-.318.036-.2.014-.289.014a1.894,1.894,0,0,1-.831-.154,1.166,1.166,0,0,1-.477-.41,1.574,1.574,0,0,1-.224-.585,4.771,4.771,0,0,1-.05-.7,4.608,4.608,0,0,1,.043-.593,1.786,1.786,0,0,1,.2-.616,1.319,1.319,0,0,1,.463-.476,1.541,1.541,0,0,1,.838-.2,1.773,1.773,0,0,1,.78.147,1.2,1.2,0,0,1,.47.381,1.3,1.3,0,0,1,.224.526,3.021,3.021,0,0,1,.072.585.6.6,0,0,1-.065.322.3.3,0,0,1-.289.125h-1.913ZM735,61.187a.812.812,0,0,0-.332.059.546.546,0,0,0-.217.175.709.709,0,0,0-.115.278,2.49,2.49,0,0,0-.05.367h1.43a1.786,1.786,0,0,0-.029-.322.77.77,0,0,0-.108-.286.5.5,0,0,0-.217-.2.766.766,0,0,0-.361-.073Z" transform="translate(-694.46 -59.027)" fill="#222433"/>
    <path id="Path_54651" data-name="Path 54651" d="M762.371,64.077a.163.163,0,0,1-.029.1.131.131,0,0,1-.108.036h-.52a.121.121,0,0,1-.137-.14l.007-2.057a1.081,1.081,0,0,0-.108-.519.415.415,0,0,0-.411-.2,1.045,1.045,0,0,0-.253.036,2.407,2.407,0,0,0-.282.095c-.092.035-.178.07-.26.109s-.147.063-.2.088v2.445a.123.123,0,0,1-.137.14h-.513a.121.121,0,0,1-.137-.14v-3.3c0-.1.046-.147.137-.147h.513c.092,0,.137.049.137.147v.22s.007,0,.007.007h.014a2.035,2.035,0,0,1,.239-.147,3.114,3.114,0,0,1,.3-.147,1.851,1.851,0,0,1,.332-.1,1.4,1.4,0,0,1,.339-.045,1.2,1.2,0,0,1,.578.117.756.756,0,0,1,.318.3,1.15,1.15,0,0,1,.137.446,4.711,4.711,0,0,1,.029.526v2.123Z" transform="translate(-716.577 -59.053)" fill="#222433"/>
    <path id="Path_54652" data-name="Path 54652" d="M786.939,58.074a.158.158,0,0,1-.093.183,1.169,1.169,0,0,1-.224.073,2,2,0,0,1-.26.045,2.269,2.269,0,0,1-.253.029c-.078,0-.145.007-.2.007a1.157,1.157,0,0,1-.5-.088.629.629,0,0,1-.26-.256,1,1,0,0,1-.108-.374,4.423,4.423,0,0,1-.022-.446V55.409h-.361a.154.154,0,0,1-.108-.029.177.177,0,0,1-.029-.109v-.358a.177.177,0,0,1,.029-.109.131.131,0,0,1,.108-.036h.368v-.754a.133.133,0,0,1,.036-.109.258.258,0,0,1,.1-.052l.484-.132c.1-.024.145,0,.145.088v.959h.773c.057,0,.093.012.108.036a.165.165,0,0,1,.029.1v.367a.177.177,0,0,1-.029.109c-.014.02-.05.029-.108.029h-.773v1.822a.929.929,0,0,0,.022.227.249.249,0,0,0,.072.125.341.341,0,0,0,.152.045c.063,0,.142.007.239.007.053,0,.128,0,.224-.007s.188-.012.26-.022a.119.119,0,0,1,.086.014.155.155,0,0,1,.043.088l.05.367Z" transform="translate(-738.181 -53.189)" fill="#222433"/>
    <path id="Path_54653" data-name="Path 54653" d="M805.591,51.929a.905.905,0,0,1-.014.168.3.3,0,0,1-.065.132.3.3,0,0,1-.129.095.633.633,0,0,1-.217.029.6.6,0,0,1-.231-.036.307.307,0,0,1-.122-.095.333.333,0,0,1-.057-.132.871.871,0,0,1-.014-.161.514.514,0,0,1,.079-.293.4.4,0,0,1,.346-.125.408.408,0,0,1,.346.117.5.5,0,0,1,.079.3Zm-.043,4.4a.185.185,0,0,1-.029.1c-.014.024-.047.036-.1.036h-.513c-.1,0-.145-.046-.145-.14v-3.31c0-.092.047-.14.145-.14h.513c.053,0,.086.014.1.045a.152.152,0,0,1,.029.095v3.31Z" transform="translate(-755.495 -51.304)" fill="#222433"/>
    <path id="Path_54654" data-name="Path 54654" d="M817.5,58.074a.158.158,0,0,1-.093.183,1.171,1.171,0,0,1-.224.073,2,2,0,0,1-.26.045,2.272,2.272,0,0,1-.253.029c-.078,0-.145.007-.2.007a1.157,1.157,0,0,1-.5-.088.629.629,0,0,1-.26-.256,1,1,0,0,1-.108-.374,4.441,4.441,0,0,1-.021-.446V55.409h-.361a.154.154,0,0,1-.108-.029.177.177,0,0,1-.029-.109v-.358a.177.177,0,0,1,.029-.109.13.13,0,0,1,.108-.036h.368v-.754a.133.133,0,0,1,.036-.109.258.258,0,0,1,.1-.052l.484-.132c.1-.024.145,0,.145.088v.959h.773c.057,0,.093.012.108.036a.166.166,0,0,1,.029.1v.367a.178.178,0,0,1-.029.109c-.014.02-.05.029-.108.029h-.773v1.822a.929.929,0,0,0,.022.227.255.255,0,0,0,.072.125.341.341,0,0,0,.152.045c.063,0,.142.007.239.007.053,0,.128,0,.224-.007s.188-.012.26-.022a.119.119,0,0,1,.086.014.155.155,0,0,1,.043.088l.05.367Z" transform="translate(-764.349 -53.189)" fill="#222433"/>
    <path id="Path_54655" data-name="Path 54655" d="M834.6,63.593c.053-.151.1-.293.145-.424s.089-.246.122-.344c.039-.117.075-.224.108-.322l.448-1.348a.189.189,0,0,1,.057-.095.181.181,0,0,1,.115-.029h.535c.057,0,.089.014.093.045a.209.209,0,0,1-.014.1l-1.683,4.656a.231.231,0,0,1-.065.1.209.209,0,0,1-.129.029h-.492c-.057,0-.092-.014-.1-.045a.21.21,0,0,1,.014-.1l.456-1.237-1.263-3.4a.209.209,0,0,1-.014-.1c.01-.029.04-.045.093-.045h.556a.234.234,0,0,1,.1.014.177.177,0,0,1,.057.095l.47,1.362.361,1.09h.029Z" transform="translate(-779.633 -59.455)" fill="#222433"/>
    <path id="Path_54656" data-name="Path 54656" d="M462.091,52.415a.13.13,0,0,1,.148-.145h2.716a.123.123,0,0,1,.141.138v.449c0,.086-.049.131-.148.131h-2.015v1.244h1.786c.1,0,.148.043.148.131v.449c0,.086-.049.131-.148.131h-1.786v1.425H465c.089,0,.132.046.132.138v.442c0,.086-.047.131-.141.131h-2.754c-.1,0-.148-.043-.148-.131V52.417Z" transform="translate(-462.09 -51.955)" fill="#222433"/>
    <path id="Path_54657" data-name="Path 54657" d="M490.914,56.392a.98.98,0,0,0,.739-.26,1.161,1.161,0,0,0,.259-.833V52.4a.13.13,0,0,1,.148-.145h.553q.082,0,.1.043a.153.153,0,0,1,.03.1l-.007,2.9a3.149,3.149,0,0,1-.03.434,1.6,1.6,0,0,1-.1.42,1.405,1.405,0,0,1-.287.442,1.434,1.434,0,0,1-.391.3,1.774,1.774,0,0,1-.48.167,2.41,2.41,0,0,1-.532.058,1.638,1.638,0,0,1-1.594-.8,1.686,1.686,0,0,1-.17-.47,2.788,2.788,0,0,1-.052-.542V52.4a.127.127,0,0,1,.141-.145h.553a.127.127,0,0,1,.141.145v2.9a1.22,1.22,0,0,0,.243.818.952.952,0,0,0,.739.275Z" transform="translate(-485.218 -51.938)" fill="#222433"/>
    <path id="Path_54658" data-name="Path 54658" d="M470.388,122.716l-.433,1.467-1.5,5.06a.645.645,0,0,1-.185.331.556.556,0,0,1-.391.1h-1.483a.647.647,0,0,1-.412-.1.525.525,0,0,1-.165-.309l-3.688-12.889q-.1-.412.267-.413h1.628a.484.484,0,0,1,.351.1.523.523,0,0,1,.185.309q.515,1.879.949,3.429c.124.44.24.882.351,1.322s.233.82.329,1.177.2.667.267.929.116.434.144.516l.66,2.582h.062l.6-2.127c.014-.055.055-.207.124-.455s.151-.565.247-.909.22-.736.329-1.136.233-.778.329-1.136.2-.662.267-.909.116-.427.144-.5l-.845-2.789a.518.518,0,0,1,0-.289.231.231,0,0,1,.227-.124h1.545a.523.523,0,0,1,.576.413q.556,1.92.989,3.511.185.682.371,1.342c.124.44.233.847.329,1.218s.2.695.267.971.116.434.144.516l.618,2.4h.082l.576-2.458c.027-.082.076-.255.144-.516s.151-.6.247-.971.2-.778.309-1.218l.371-1.322q.412-1.571.927-3.469a.525.525,0,0,1,.576-.413h1.567q.371,0,.227.455l-3.564,12.827a.577.577,0,0,1-.206.331.644.644,0,0,1-.412.1H473a.726.726,0,0,1-.453-.1.924.924,0,0,1-.165-.331l-1.5-5.1-.412-1.446-.082.02Z" transform="translate(-462.101 -106.484)" fill="#222433"/>
    <path id="Path_54659" data-name="Path 54659" d="M588.538,145.259h-2.514a1.886,1.886,0,0,0-1.236.373,1.657,1.657,0,0,0-.453,1.364,1.335,1.335,0,0,0,.267.951,1.569,1.569,0,0,0,1.009.247,3.544,3.544,0,0,0,.721-.082,5.541,5.541,0,0,0,.783-.227c.262-.1.515-.2.762-.309s.467-.242.66-.351v-1.962Zm.124,3.429a6.84,6.84,0,0,1-1.772.971,5.6,5.6,0,0,1-2.019.373,4,4,0,0,1-1.381-.207,2.376,2.376,0,0,1-.865-.6,2.559,2.559,0,0,1-.453-.929,5.377,5.377,0,0,1-.124-1.2,3.176,3.176,0,0,1,.949-2.624,4.418,4.418,0,0,1,2.926-.826h2.637v-.536a2.428,2.428,0,0,0-.1-.764.991.991,0,0,0-.329-.536,1.454,1.454,0,0,0-.66-.289,5.541,5.541,0,0,0-1.051-.082c-.165,0-.371.007-.618.02s-.48.027-.742.042-.5.035-.762.062-.474.047-.68.062a1.665,1.665,0,0,1-.433.02c-.069-.027-.116-.117-.144-.269l-.185-.764a.427.427,0,0,1,.042-.331.89.89,0,0,1,.433-.289,4.707,4.707,0,0,1,.783-.207q.453-.082.927-.124.474-.063.927-.082.474-.041.845-.042a6.733,6.733,0,0,1,2.123.269,2.61,2.61,0,0,1,1.216.764,2.4,2.4,0,0,1,.536,1.178,9.136,9.136,0,0,1,.124,1.569v3.986a4.946,4.946,0,0,0,.02.5.972.972,0,0,0,.1.269.513.513,0,0,0,.227.124,2.206,2.206,0,0,0,.391.062.667.667,0,0,1,.309.082.269.269,0,0,1,.082.227v.867c0,.234-.165.378-.494.434-.165.027-.329.047-.494.062a2.912,2.912,0,0,1-.474.042,2.275,2.275,0,0,1-1.174-.269,1.486,1.486,0,0,1-.6-.991l-.042-.02Z" transform="translate(-564.807 -126.673)" fill="#222433"/>
    <path id="Path_54660" data-name="Path 54660" d="M665.156,122.081c0,.316.069.516.206.6a2,2,0,0,0,.762.1.77.77,0,0,1,.289.062.3.3,0,0,1,.124.207l.082,1.053a.4.4,0,0,1-.267.393,1.973,1.973,0,0,1-.68.186,4.3,4.3,0,0,1-.66.062,2.171,2.171,0,0,1-1.648-.516,2.416,2.416,0,0,1-.453-1.591V110.473a.346.346,0,0,1,.391-.393h1.463a.346.346,0,0,1,.391.393V122.08Z" transform="translate(-634.049 -101.45)" fill="#222433"/>
    <path id="Path_54661" data-name="Path 54661" d="M703.1,122.081c0,.316.069.516.206.6a2,2,0,0,0,.762.1.769.769,0,0,1,.289.062.3.3,0,0,1,.124.207l.082,1.053a.4.4,0,0,1-.267.393,1.972,1.972,0,0,1-.68.186,4.3,4.3,0,0,1-.66.062,2.171,2.171,0,0,1-1.648-.516,2.416,2.416,0,0,1-.453-1.591V110.473a.346.346,0,0,1,.391-.393H702.7a.346.346,0,0,1,.391.393V122.08Z" transform="translate(-666.536 -101.45)" fill="#222433"/>
    <path id="Path_54662" data-name="Path 54662" d="M737.977,145.424a5.5,5.5,0,0,0,.165,1.3,1.992,1.992,0,0,0,.474.826,1.772,1.772,0,0,0,.762.413,4.216,4.216,0,0,0,1.092.124,12.591,12.591,0,0,0,1.319-.082l1.36-.145a.668.668,0,0,1,.391.02c.082.027.138.138.165.331l.124.682a.667.667,0,0,1-.02.373c-.027.1-.138.186-.329.269a5.752,5.752,0,0,1-.721.227q-.412.082-.865.145c-.3.042-.605.076-.907.1s-.576.042-.825.042a5.441,5.441,0,0,1-2.37-.434,3.328,3.328,0,0,1-1.36-1.156,4.352,4.352,0,0,1-.638-1.653,13.032,13.032,0,0,1-.144-1.962,12.894,12.894,0,0,1,.124-1.673,5.01,5.01,0,0,1,.556-1.735,3.715,3.715,0,0,1,1.319-1.342,4.457,4.457,0,0,1,2.39-.558,5.1,5.1,0,0,1,2.225.413,3.4,3.4,0,0,1,1.339,1.074,3.614,3.614,0,0,1,.638,1.487,8.439,8.439,0,0,1,.206,1.653,1.644,1.644,0,0,1-.185.909.877.877,0,0,1-.825.351h-5.46Zm2.061-4.027a2.325,2.325,0,0,0-.947.165,1.547,1.547,0,0,0-.618.5,2.045,2.045,0,0,0-.329.785,6.881,6.881,0,0,0-.144,1.033h4.08a4.9,4.9,0,0,0-.082-.909,2.185,2.185,0,0,0-.309-.805,1.447,1.447,0,0,0-.618-.558,2.209,2.209,0,0,0-1.03-.207Z" transform="translate(-696.335 -126.673)" fill="#222433"/>
    <path id="Path_54663" data-name="Path 54663" d="M812.5,132.588a.444.444,0,0,1-.267.516,3.261,3.261,0,0,1-.638.207,6.04,6.04,0,0,1-.742.124,6.49,6.49,0,0,1-.721.082c-.22.014-.412.02-.576.02a3.331,3.331,0,0,1-1.421-.247,1.8,1.8,0,0,1-.742-.723,2.784,2.784,0,0,1-.309-1.053,12.165,12.165,0,0,1-.062-1.26V125.07h-1.03a.44.44,0,0,1-.309-.082.493.493,0,0,1-.082-.309v-1.013a.487.487,0,0,1,.082-.309.378.378,0,0,1,.309-.1h1.051v-2.127a.379.379,0,0,1,.1-.309.722.722,0,0,1,.289-.145l1.381-.371c.274-.069.412.014.412.247v2.706h2.2c.165,0,.267.035.309.1a.455.455,0,0,1,.082.289v1.033a.487.487,0,0,1-.082.309c-.042.055-.144.082-.309.082h-2.2v5.144a2.542,2.542,0,0,0,.062.64.685.685,0,0,0,.206.351.933.933,0,0,0,.433.124c.178.014.405.02.68.02.151,0,.364-.007.638-.02s.536-.035.742-.062a.332.332,0,0,1,.247.042.418.418,0,0,1,.124.247l.144,1.033Z" transform="translate(-756.232 -110.18)" fill="#222433"/>
  </g>
</svg>
